<svg width="24" height="24" viewBox="0 0 24 24" fill="none" xmlns="http://www.w3.org/2000/svg">
<path d="M18 8.01562V6H6V8.01562H18ZM14.0156 14.0156V12H6V14.0156H14.0156ZM6 9V11.0156H18V9H6ZM20.0156 2.01562C20.5469 2.01562 21 2.21875 21.375 2.625C21.7812 3 21.9844 3.45313 21.9844 3.98438V15.9844C21.9844 16.5156 21.7812 16.9844 21.375 17.3906C21 17.7969 20.5469 18 20.0156 18H6L2.01562 21.9844V3.98438C2.01562 3.45313 2.20312 3 2.57812 2.625C2.98438 2.21875 3.45312 2.01562 3.98438 2.01562H20.0156Z" fill="#888888"/>
</svg>
