<svg width="32" height="33" viewBox="0 0 32 33" fill="none" xmlns="http://www.w3.org/2000/svg">
<path d="M8.4375 17.4375C9.60417 18.6042 11.0208 19.1875 12.6875 19.1875C14.3542 19.1875 15.7708 18.6042 16.9375 17.4375C18.1042 16.2708 18.6875 14.8542 18.6875 13.1875C18.6875 11.5208 18.1042 10.1042 16.9375 8.9375C15.7708 7.77083 14.3542 7.1875 12.6875 7.1875C11.0208 7.1875 9.60417 7.77083 8.4375 8.9375C7.27083 10.1042 6.6875 11.5208 6.6875 13.1875C6.6875 14.8542 7.27083 16.2708 8.4375 17.4375ZM20.6875 19.1875L27.3125 25.8125L25.3125 27.8125L18.6875 21.1875V20.125L18.3125 19.75C16.7292 21.125 14.8542 21.8125 12.6875 21.8125C10.2708 21.8125 8.20833 20.9792 6.5 19.3125C4.83333 17.6458 4 15.6042 4 13.1875C4 10.7708 4.83333 8.72917 6.5 7.0625C8.20833 5.35417 10.2708 4.5 12.6875 4.5C15.1042 4.5 17.1458 5.35417 18.8125 7.0625C20.4792 8.72917 21.3125 10.7708 21.3125 13.1875C21.3125 14.0625 21.1042 15.0625 20.6875 16.1875C20.2708 17.2708 19.7917 18.1458 19.25 18.8125L19.625 19.1875H20.6875Z" fill="#BCBCBC"/>
</svg>
