<svg width="24" height="24" viewBox="0 0 24 24" fill="none" xmlns="http://www.w3.org/2000/svg">
<mask id="path-1-outside-1_6525_1845" maskUnits="userSpaceOnUse" x="-2" y="-2" width="28" height="25" fill="black">
<rect fill="white" x="-2" y="-2" width="28" height="25"/>
<path d="M23.0156 9.98438V12C23.0156 12.25 22.9688 12.5 22.875 12.75L19.8281 19.7812C19.5156 20.5938 18.9062 21 18 21H9C8.46875 21 8 20.7969 7.59375 20.3906C7.1875 19.9844 6.98438 19.5156 6.98438 18.9844V9C6.98438 8.46875 7.1875 8 7.59375 7.59375L14.1562 0.984375L15.2344 2.0625C15.5156 2.34375 15.6562 2.6875 15.6562 3.09375V3.42188L14.6719 8.01562H21C21.5312 8.01562 22 8.21875 22.4062 8.625C22.8125 9 23.0156 9.45312 23.0156 9.98438ZM0.984375 21V9H5.01562V21H0.984375Z"/>
</mask>
<path d="M22.875 12.75L24.7101 13.5452L24.7301 13.4992L24.7477 13.4522L22.875 12.75ZM19.8281 19.7812L17.993 18.986L17.9764 19.0243L17.9614 19.0633L19.8281 19.7812ZM7.59375 7.59375L9.00797 9.00797L9.01299 9.00292L7.59375 7.59375ZM14.1562 0.984375L15.5705 -0.429839L14.1512 -1.84909L12.737 -0.424797L14.1562 0.984375ZM15.6562 3.42188L17.6119 3.84093L17.6562 3.63376V3.42188H15.6562ZM14.6719 8.01562L12.7163 7.59657L12.1979 10.0156H14.6719V8.01562ZM22.4062 8.625L20.992 10.0392L21.0203 10.0675L21.0497 10.0946L22.4062 8.625ZM0.984375 21H-1.01562V23H0.984375V21ZM0.984375 9V7H-1.01562V9H0.984375ZM5.01562 9H7.01562V7H5.01562V9ZM5.01562 21V23H7.01562V21H5.01562ZM21.0156 9.98438V12H25.0156V9.98438H21.0156ZM21.0156 12C21.0156 11.9999 21.0156 12.0001 21.0156 12C21.0156 11.9999 21.0156 12.0001 21.0156 12C21.0156 12 21.0156 12 21.0156 12C21.0156 12 21.0156 12 21.0156 12C21.0156 12 21.0156 12.0001 21.0156 12.0001C21.0156 12.0002 21.0156 12.0004 21.0156 12.0008C21.0155 12.0015 21.0153 12.0034 21.0147 12.0064C21.0136 12.0122 21.0106 12.0257 21.0023 12.0478L24.7477 13.4522C24.9198 12.9931 25.0156 12.5057 25.0156 12H21.0156ZM21.0399 11.9548L17.993 18.986L21.6632 20.5765L24.7101 13.5452L21.0399 11.9548ZM17.9614 19.0633C17.9414 19.1155 17.9308 19.124 17.943 19.1079C17.949 19.0999 17.9594 19.0876 17.9747 19.0731C17.99 19.0586 18.0078 19.0442 18.0273 19.0312C18.0468 19.0182 18.065 19.0086 18.0801 19.0019C18.095 18.9952 18.1044 18.9925 18.1062 18.992C18.1094 18.9912 18.0781 19 18 19V23C18.7538 23 19.5424 22.8286 20.2461 22.3594C20.956 21.8861 21.4188 21.217 21.6948 20.4992L17.9614 19.0633ZM18 19H9V23H18V19ZM9 19C8.9954 19 9.00009 18.9996 9.0114 19.0019C9.01674 19.003 9.02263 19.0045 9.02876 19.0064C9.03489 19.0084 9.04045 19.0105 9.04521 19.0125C9.05531 19.0169 9.05808 19.0194 9.05314 19.016C9.04785 19.0123 9.03239 19.0008 9.00796 18.9764L6.17954 21.8048C6.92713 22.5524 7.89245 23 9 23V19ZM9.00796 18.9764C8.98353 18.952 8.97205 18.9365 8.96836 18.9312C8.96493 18.9263 8.96746 18.9291 8.97183 18.9392C8.97389 18.9439 8.976 18.9495 8.97793 18.9556C8.97986 18.9617 8.98135 18.9676 8.98244 18.973C8.98473 18.9843 8.98438 18.989 8.98438 18.9844H4.98438C4.98438 20.0919 5.43194 21.0572 6.17954 21.8048L9.00796 18.9764ZM8.98438 18.9844V9H4.98438V18.9844H8.98438ZM8.98438 9C8.98438 8.9954 8.98473 9.00009 8.98244 9.0114C8.98135 9.01674 8.97986 9.02263 8.97793 9.02876C8.976 9.03489 8.97389 9.04045 8.97183 9.04521C8.96746 9.05531 8.96493 9.05808 8.96836 9.05314C8.97205 9.04785 8.98353 9.03239 9.00796 9.00796L6.17954 6.17954C5.43194 6.92713 4.98438 7.89245 4.98438 9H8.98438ZM9.01299 9.00292L15.5755 2.39355L12.737 -0.424797L6.17451 6.18458L9.01299 9.00292ZM12.742 2.39859L13.8202 3.47671L16.6486 0.648286L15.5705 -0.429839L12.742 2.39859ZM13.8202 3.47671C13.7865 3.44302 13.7369 3.37951 13.6997 3.28852C13.6628 3.19836 13.6562 3.12584 13.6562 3.09375H17.6562C17.6562 2.16978 17.3138 1.3135 16.6486 0.648286L13.8202 3.47671ZM13.6562 3.09375V3.42188H17.6562V3.09375H13.6562ZM13.7006 3.00282L12.7163 7.59657L16.6275 8.43468L17.6119 3.84093L13.7006 3.00282ZM14.6719 10.0156H21V6.01562H14.6719V10.0156ZM21 10.0156C21.0046 10.0156 20.9999 10.016 20.9886 10.0137C20.9833 10.0126 20.9774 10.0111 20.9712 10.0092C20.9651 10.0073 20.9595 10.0051 20.9548 10.0031C20.9447 9.99871 20.9419 9.99618 20.9469 9.99961C20.9521 10.0033 20.9676 10.0148 20.992 10.0392L23.8205 7.21079C23.0729 6.46319 22.1075 6.01562 21 6.01562V10.0156ZM21.0497 10.0946C21.0646 10.1084 21.0668 10.1128 21.062 10.1063C21.0569 10.0993 21.0476 10.0851 21.0383 10.0642C21.0288 10.0432 21.0224 10.0224 21.0188 10.0048C21.0152 9.9875 21.0156 9.97964 21.0156 9.98438H25.0156C25.0156 8.86977 24.5604 7.8916 23.7628 7.15539L21.0497 10.0946ZM2.98438 21V9H-1.01562V21H2.98438ZM0.984375 11H5.01562V7H0.984375V11ZM3.01562 9V21H7.01562V9H3.01562ZM5.01562 19H0.984375V23H5.01562V19Z" fill="#888888" mask="url(#path-1-outside-1_6525_1845)"/>
</svg>
